<?xml version="1.0" encoding="UTF-8"?>
<svg width="245px" height="151px" viewBox="0 0 245 151" version="1.1" xmlns="http://www.w3.org/2000/svg" xmlns:xlink="http://www.w3.org/1999/xlink">
    <title>logo--on-teal</title>
    <defs>
        <path d="M21.5,0 C9.61842105,0 0,9.61842105 0,21.5 C0,33.3815789 9.61842105,43 21.5,43 C33.3815789,43 43,33.3815789 43,21.5 C43,9.61842105 33.3815789,0 21.5,0 Z" id="path-1"></path>
    </defs>
    <g id="logo--on-teal" stroke="none" stroke-width="1" fill="none" fill-rule="evenodd">
        <path d="M58.1764615,117.68 C65.1804615,117.68 70.4844615,113.668 70.4844615,107.14 C70.4844615,101.496 66.9484615,98.64 60.9644615,96.804 L57.4964615,95.784 C54.1644615,94.764 53.4164615,93.404 53.4164615,91.772 C53.4164615,89.664 55.7284615,88.576 57.9724615,88.576 C60.7604615,88.576 62.8684615,89.936 64.4324615,92.044 L69.6004615,88.1 C67.2204615,84.292 63.2764615,82.32 58.1084615,82.32 C51.3084615,82.32 45.9364615,86.06 45.9364615,92.044 C45.8684615,97.144 48.8604615,100.816 54.8444615,102.448 L57.8364615,103.264 C61.9164615,104.556 63.0724615,105.644 63.0724615,107.616 C63.0724615,109.996 60.8284615,111.22 58.1764615,111.22 C54.7084615,111.22 51.3764615,109.52 50.0164615,106.528 L44.5084615,110.472 C46.9564615,115.368 52.1244615,117.68 58.1764615,117.68 Z M89.3075385,117.65 C96.1325385,117.65 101.202539,114.79 104.127538,110.11 L98.6675385,106.21 C96.9125385,109.07 93.9875385,111.15 89.3725385,111.15 C83.9125385,111.15 79.6875385,107.705 79.3625385,102.31 L104.907539,102.31 C104.972538,101.27 104.972538,100.685 104.972538,99.97 C104.972538,89.505 97.8875385,83.85 89.3075385,83.85 C79.4275385,83.85 72.3425385,91.195 72.3425385,100.75 C72.3425385,110.695 79.4275385,117.65 89.3075385,117.65 Z M97.7575385,97.11 L79.6875385,97.11 C80.7275385,92.3 84.8225385,89.895 89.0475385,89.895 C93.2075385,89.895 96.9775385,92.43 97.7575385,97.11 Z M123.042539,117.65 C127.722539,117.65 131.622539,115.245 133.442539,112.645 L133.442539,117 L140.592538,117 L140.592538,84.5 L133.442539,84.5 L133.442539,88.855 C131.622539,86.255 127.722539,83.85 123.042539,83.85 C114.137539,83.85 107.377538,91.455 107.377538,100.75 C107.377538,110.045 114.137539,117.65 123.042539,117.65 Z M124.342539,111.15 C118.622539,111.15 114.657539,106.6 114.657539,100.75 C114.657539,94.9 118.622539,90.35 124.342539,90.35 C130.062539,90.35 134.027538,94.9 134.027538,100.75 C134.027538,106.6 130.062539,111.15 124.342539,111.15 Z M161.182538,117.325 C163.457538,117.325 165.017539,117.065 166.512539,116.61 L166.512539,110.24 C165.472538,110.695 164.042539,110.89 162.677538,110.89 C158.972538,110.89 157.217538,109.46 157.217538,105.365 L157.217538,90.87 L166.512539,90.87 L166.512539,84.5 L157.217538,84.5 L157.217538,75.465 L150.067539,75.465 L150.067539,84.5 L143.307539,84.5 L143.307539,90.87 L150.067539,90.87 L150.067539,106.535 C150.067539,113.88 154.942539,117.325 161.182538,117.325 Z M183.342538,117.65 C188.022538,117.65 191.922539,115.245 193.742539,112.645 L193.742539,117 L200.892539,117 L200.892539,68.25 L193.742539,68.25 L193.742539,88.855 C191.922539,86.255 188.022538,83.85 183.342538,83.85 C174.437539,83.85 167.677539,91.455 167.677539,100.75 C167.677539,110.045 174.437539,117.65 183.342538,117.65 Z M184.642539,111.15 C178.922539,111.15 174.957538,106.6 174.957538,100.75 C174.957538,94.9 178.922539,90.35 184.642539,90.35 C190.362539,90.35 194.327539,94.9 194.327539,100.75 C194.327539,106.6 190.362539,111.15 184.642539,111.15 Z" id="seatd" fill="#083940" fill-rule="nonzero"></path>
        <g id="Emblem-Copy-5" transform="translate(104.000000, 25.000000)">
            <mask id="mask-2" fill="white">
                <use xlink:href="#path-1"></use>
            </mask>
            <use id="Shape-Copy-11" fill="#083940" fill-rule="nonzero" xlink:href="#path-1"></use>
            <path d="M15.59375,43.2051282 L15.59375,31.4941505 C11.330009,31.0438849 8,27.2176201 8,22.5641026 L8,10.8974359 C8,10.4017957 8.37775974,10 8.84375,10 L24.03125,10 C24.4972402,10 24.875,10.4017957 24.875,10.8974359 L24.875,22.5641026 C24.875,27.2176201 21.544991,31.0438849 17.28125,31.4941505 L17.28125,43.2051282 L21.5,43.2051282 C21.9659902,43.2051282 22.34375,43.606924 22.34375,44.1025641 C22.34375,44.5982042 21.9659902,45 21.5,45 L11.375,45 C10.9090098,45 10.53125,44.5982042 10.53125,44.1025641 C10.53125,43.606924 10.9090098,43.2051282 11.375,43.2051282 L15.59375,43.2051282 Z M9.6875,11.7948718 L9.6875,22.5641026 C9.6875,26.5292238 12.7095779,29.7435897 16.4375,29.7435897 C20.1654221,29.7435897 23.1875,26.5292238 23.1875,22.5641026 L23.1875,11.7948718 L9.6875,11.7948718 Z M26.5625,10.8974359 C26.5625,10.4017957 26.9402598,10 27.40625,10 C27.8722402,10 28.25,10.4017957 28.25,10.8974359 L28.25,22.5641026 C28.25,23.0597427 27.8722402,23.4615385 27.40625,23.4615385 C26.9402598,23.4615385 26.5625,23.0597427 26.5625,22.5641026 L26.5625,10.8974359 Z M29.9375,10.8974359 C29.9375,10.4017957 30.3152598,10 30.78125,10 C31.2472402,10 31.625,10.4017957 31.625,10.8974359 L31.625,22.5641026 C31.625,23.0597427 31.2472402,23.4615385 30.78125,23.4615385 C30.3152598,23.4615385 29.9375,23.0597427 29.9375,22.5641026 L29.9375,10.8974359 Z M33.3125,10.8974359 C33.3125,10.4017957 33.6902598,10 34.15625,10 C34.6222402,10 35,10.4017957 35,10.8974359 L35,24.5899771 C35,26.869317 33.8912184,28.9863944 32.0691117,30.1861354 C30.743908,31.0586975 29.9375,32.598431 29.9375,34.2561767 L29.9375,44.1025641 C29.9375,44.5982042 29.5597402,45 29.09375,45 C28.6277598,45 28.25,44.5982042 28.25,44.1025641 L28.25,34.2561767 C28.25,31.9768369 29.3587816,29.8597595 31.1808883,28.6600185 C32.506092,27.7874563 33.3125,26.2477229 33.3125,24.5899771 L33.3125,10.8974359 Z" id="Shape" stroke="#083940" stroke-width="0.1" fill="#FFFFFF" fill-rule="nonzero" mask="url(#mask-2)"></path>
        </g>
    </g>
</svg>