<?xml version="1.0" encoding="utf-8"?>
<!-- Generator: Adobe Illustrator 24.2.1, SVG Export Plug-In . SVG Version: 6.00 Build 0)  -->
<svg version="1.1" id="Layer_1" xmlns="http://www.w3.org/2000/svg" xmlns:xlink="http://www.w3.org/1999/xlink" x="0px" y="0px"
	 viewBox="0 0 245 151" style="enable-background:new 0 0 245 151;" xml:space="preserve">
<style type="text/css">
	.st0{fill:#711650;}
	.st1{filter:url(#Adobe_OpacityMaskFilter);}
	.st2{fill-rule:evenodd;clip-rule:evenodd;fill:#FFFFFF;}
	.st3{mask:url(#mask-2_1_);fill:#FFFFFF;stroke:#083940;stroke-width:0.1;}
</style>
<g id="logo--on-pink">
	<path id="seatd" class="st0" d="M58.2,117.7c7,0,12.3-4,12.3-10.5c0-5.6-3.5-8.5-9.5-10.3l-3.5-1c-3.3-1-4.1-2.4-4.1-4
		c0-2.1,2.3-3.2,4.6-3.2c2.8,0,4.9,1.4,6.5,3.5l5.2-3.9c-2.4-3.8-6.3-5.8-11.5-5.8c-6.8,0-12.2,3.7-12.2,9.7
		c-0.1,5.1,2.9,8.8,8.9,10.4l3,0.8c4.1,1.3,5.2,2.4,5.2,4.4c0,2.4-2.2,3.6-4.9,3.6c-3.5,0-6.8-1.7-8.2-4.7l-5.5,3.9
		C47,115.4,52.1,117.7,58.2,117.7z M89.3,117.7c6.8,0,11.9-2.9,14.8-7.5l-5.5-3.9c-1.8,2.9-4.7,4.9-9.3,4.9c-5.5,0-9.7-3.4-10-8.8
		h25.5c0.1-1,0.1-1.6,0.1-2.3c0-10.5-7.1-16.1-15.7-16.1c-9.9,0-17,7.3-17,16.9C72.3,110.7,79.4,117.7,89.3,117.7z M97.8,97.1H79.7
		c1-4.8,5.1-7.2,9.4-7.2C93.2,89.9,97,92.4,97.8,97.1z M123,117.7c4.7,0,8.6-2.4,10.4-5v4.4h7.2V84.5h-7.2v4.4
		c-1.8-2.6-5.7-5-10.4-5c-8.9,0-15.7,7.6-15.7,16.9S114.1,117.7,123,117.7z M124.3,111.2c-5.7,0-9.7-4.6-9.7-10.4s4-10.4,9.7-10.4
		c5.7,0,9.7,4.6,9.7,10.4S130.1,111.2,124.3,111.2z M161.2,117.3c2.3,0,3.8-0.3,5.3-0.7v-6.4c-1,0.5-2.5,0.7-3.8,0.7
		c-3.7,0-5.5-1.4-5.5-5.5V90.9h9.3v-6.4h-9.3v-9h-7.2v9h-6.8v6.4h6.8v15.7C150.1,113.9,154.9,117.3,161.2,117.3z M183.3,117.7
		c4.7,0,8.6-2.4,10.4-5v4.4h7.1V68.2h-7.1v20.6c-1.8-2.6-5.7-5-10.4-5c-8.9,0-15.7,7.6-15.7,16.9S174.4,117.7,183.3,117.7z
		 M184.6,111.2c-5.7,0-9.7-4.6-9.7-10.4s4-10.4,9.7-10.4c5.7,0,9.7,4.6,9.7,10.4S190.4,111.2,184.6,111.2z"/>
	<g id="Emblem-Copy-4" transform="translate(104.000000, 25.000000)">
		<g id="Shape-Copy-11">
			<path id="path-1_1_" class="st0" d="M21.5,0C9.6,0,0,9.6,0,21.5S9.6,43,21.5,43S43,33.4,43,21.5S33.4,0,21.5,0z"/>
		</g>
		<defs>
			<filter id="Adobe_OpacityMaskFilter" filterUnits="userSpaceOnUse" x="7.9" y="9.9" width="27.1" height="35.1">
				<feColorMatrix  type="matrix" values="1 0 0 0 0  0 1 0 0 0  0 0 1 0 0  0 0 0 1 0"/>
			</filter>
		</defs>
		<mask maskUnits="userSpaceOnUse" x="7.9" y="9.9" width="27.1" height="35.1" id="mask-2_1_">
			<g class="st1">
				<path id="path-1_2_" class="st2" d="M21.5,0C9.6,0,0,9.6,0,21.5S9.6,43,21.5,43S43,33.4,43,21.5S33.4,0,21.5,0z"/>
			</g>
		</mask>
		<path id="Shape" class="st3" d="M15.6,43.2V31.5C11.3,31,8,27.2,8,22.6V10.9C8,10.4,8.4,10,8.8,10H24c0.5,0,0.8,0.4,0.8,0.9v11.7
			c0,4.7-3.3,8.5-7.6,8.9v11.7h4.2c0.5,0,0.8,0.4,0.8,0.9c0,0.5-0.4,0.9-0.8,0.9H11.4c-0.5,0-0.8-0.4-0.8-0.9c0-0.5,0.4-0.9,0.8-0.9
			H15.6z M9.7,11.8v10.8c0,4,3,7.2,6.8,7.2s6.8-3.2,6.8-7.2V11.8H9.7z M26.6,10.9c0-0.5,0.4-0.9,0.8-0.9s0.8,0.4,0.8,0.9v11.7
			c0,0.5-0.4,0.9-0.8,0.9s-0.8-0.4-0.8-0.9V10.9z M29.9,10.9c0-0.5,0.4-0.9,0.8-0.9s0.8,0.4,0.8,0.9v11.7c0,0.5-0.4,0.9-0.8,0.9
			s-0.8-0.4-0.8-0.9V10.9z M33.3,10.9c0-0.5,0.4-0.9,0.8-0.9s0.8,0.4,0.8,0.9v13.7c0,2.3-1.1,4.4-2.9,5.6c-1.3,0.9-2.1,2.4-2.1,4.1
			v9.8c0,0.5-0.4,0.9-0.8,0.9s-0.8-0.4-0.8-0.9v-9.8c0-2.3,1.1-4.4,2.9-5.6c1.3-0.9,2.1-2.4,2.1-4.1V10.9z"/>
	</g>
</g>
</svg>
